# xmcd
# 
# Track frame offsets:
#     182
#     27112
#     46295
#     62720
#     84882
#     104920
#     122440
#     144990
#     177632
#     198020
#     215540
#     232912
#     250932
#     266745
#     284520
#     306375
#     328907
# 
# Disc length: 4616
# 
# Revision: 39
# Processed by: cddbd v1.5.2PL0 Copyright (c) Steve Scherf et al.
# Submitted via: fre:ac v1.0.17
# 
DISCID=fb120611
DTITLE=Sting - Fields Of Gold, The Best Of Sting - 1984-1994 (Digitally Remastered)
DYEAR=1994
DGENRE=Rock
TTITLE0=When We Dance
TTITLE1=If You Love Somebody Set Them Free
TTITLE2=Fields Of Gold
TTITLE3=All This Time
TTITLE4=Englishman In New York
TTITLE5=Mad About You
TTITLE6=It's Probably Me
TTITLE7=They Dance Alone (Cueca Solo)
TTITLE8=If I Ever Lose My Faith In You
TTITLE9=Fragile
TTITLE10=We'll Be Together
TTITLE11=Moon Over Bourbon Street
TTITLE12=Love Is The Seventh Wave
TTITLE13=Russians
TTITLE14=Why Should I Cry For You?
TTITLE15=This Cowboy Song
TTITLE16=Fragil (Portuguese Version)
EXTD=
EXTT0=
EXTT1=
EXTT2=
EXTT3=
EXTT4=
EXTT5=
EXTT6=
EXTT7=
EXTT8=
EXTT9=
EXTT10=
EXTT11=
EXTT12=
EXTT13=
EXTT14=
EXTT15=
EXTT16=
PLAYORDER=
